<svg width="878" height="664" viewBox="0 0 878 664" fill="none" xmlns="http://www.w3.org/2000/svg">
<g clip-path="url(#clip0_671_2529)">
<g clip-path="url(#clip1_671_2529)">
<path fill-rule="evenodd" clip-rule="evenodd" d="M3.58349 581.685L39.9206 409.468L98.2712 400.365C113.915 397.925 124.657 399.197 130.497 404.183C136.337 409.173 137.785 418.679 134.839 432.699L133.256 440.234C131.515 448.327 128.322 455.167 123.643 460.755C118.963 466.344 112.734 470.499 104.989 473.225C114.275 473.667 119.823 477.234 121.6 483.926C123.377 490.622 123.172 499.156 120.984 509.528C118.639 520.683 115.268 530.636 110.874 539.398C106.513 548.154 100.414 555.384 92.6084 561.078C84.7697 566.782 74.5448 570.615 61.8999 572.588L3.58349 581.685ZM68.2858 467.785L77.1132 466.407C81.101 465.785 83.9177 464.146 85.5974 461.484C87.2438 458.833 88.4427 455.776 89.1945 452.313L92.8482 434.994C94.0087 429.45 91.5549 427.149 85.4199 428.106L76.3877 429.515L68.2858 467.785ZM56.3092 544.124C67.4885 542.38 73.9538 537.272 75.7725 528.785L80.3061 507.259C81.3242 502.369 81.2326 498.647 79.9971 496.097C78.7609 493.542 75.6211 492.661 70.5768 493.447L62.601 494.692L52.0886 544.596C53.8455 544.445 55.2526 544.289 56.3092 544.124Z" fill="#CB1313"/>
<path fill-rule="evenodd" clip-rule="evenodd" d="M123.418 562.993L159.756 390.775L245.85 377.345L238.818 410.613L196.521 417.212L189.431 450.778L230.025 444.446L223.171 476.839L182.577 483.172L174.272 522.604L219.398 515.564L212.308 549.126L123.418 562.993Z" fill="#CB1313"/>
<path fill-rule="evenodd" clip-rule="evenodd" d="M244.958 544.034L274.338 404.888L248.775 408.875L255.733 375.805L349.905 361.114L342.913 394.19L317.351 398.178L288.005 537.319L244.958 544.034Z" fill="#CB1313"/>
<path fill-rule="evenodd" clip-rule="evenodd" d="M325.529 531.467L361.866 359.249L418.752 350.375C430.647 348.52 439.616 349.168 445.694 352.324C451.771 355.475 455.489 360.733 456.845 368.088C458.236 375.442 457.769 384.536 455.478 395.369C453.266 405.808 450.103 415.083 445.924 423.213C441.779 431.333 436.014 438.022 428.629 443.278C421.244 448.529 411.604 452.085 399.709 453.94L382.224 456.668L367.827 524.868L325.529 531.467ZM388.749 425.746L391.203 425.363C399.179 424.119 404.47 421.555 407.009 417.691C409.548 413.823 411.565 408.4 413.06 401.418C414.417 394.894 414.595 389.993 413.629 386.706C412.594 383.429 408.856 382.293 402.312 383.314L397.574 384.053L388.749 425.746Z" fill="#CB1313"/>
<path fill-rule="evenodd" clip-rule="evenodd" d="M494.776 506.579C477.598 509.259 465.33 507.152 457.97 500.259C450.645 493.355 448.637 482.046 451.98 466.318L469.249 384.515C472.361 369.773 479.201 357.887 489.836 348.843C500.437 339.809 514.429 333.938 531.812 331.227C549.16 328.52 561.549 330.276 568.943 336.502C576.339 342.734 578.497 353.216 575.384 367.958L558.115 449.761C554.773 465.489 547.714 478.212 536.873 487.95C525.998 497.688 511.988 503.894 494.776 506.579ZM501.834 474.82C508.378 473.799 512.712 468.236 514.836 458.124L532.557 374.071C534.376 365.584 532.082 361.843 525.708 362.837C518.551 363.954 514.043 368.854 512.219 377.528L494.483 461.485C493.362 466.837 493.381 470.541 494.506 472.604C495.665 474.661 498.085 475.405 501.834 474.82Z" fill="#CB1313"/>
<path fill-rule="evenodd" clip-rule="evenodd" d="M563.597 494.332L599.934 322.114L641.516 315.627L605.179 487.845L563.597 494.332Z" fill="#CB1313"/>
<path fill-rule="evenodd" clip-rule="evenodd" d="M622.287 485.177L658.625 312.96L702.899 306.053L705.295 385.455L722.701 302.964L764.283 296.478L727.911 468.7L685.852 475.261L682.514 392.505L664.346 478.616L622.287 485.177Z" fill="#CB1313"/>
<path fill-rule="evenodd" clip-rule="evenodd" d="M765.469 462.843L794.848 323.696L769.286 327.684L776.278 294.608L870.416 279.923L863.424 312.999L837.896 316.981L808.516 456.128L765.469 462.843Z" fill="#CB1313"/>
<path d="M602.559 313.604L618.624 239.526L660.206 233.039L644.141 307.117L602.559 313.604Z" fill="#F5AF0F"/>
<path fill-rule="evenodd" clip-rule="evenodd" d="M606.156 190.17L547.723 247.223L598.591 227.102L580 317.629L499.521 329.524L544.365 124.456L622.611 112.199L606.156 190.17Z" fill="#F5AF0F"/>
<path d="M414.713 342.92L445.15 200.029L508.34 190.171L478.248 332.808L414.713 342.92Z" fill="#F5AF0F"/>
<path fill-rule="evenodd" clip-rule="evenodd" d="M829.352 0.0994873L751.726 60.1132L736.979 102.27L555.45 243.657L750.478 119.736L799.928 118.105L876.738 67.2696L806.865 64.0337L829.352 0.0994873Z" fill="#CB1313"/>
<path fill-rule="evenodd" clip-rule="evenodd" d="M684.538 177.904C684.538 177.904 708.953 239.78 673.324 304.42L699.719 300.524C699.719 300.524 732.21 235.47 705.989 163.99L684.538 177.904Z" fill="#F5AF0F"/>
<path fill-rule="evenodd" clip-rule="evenodd" d="M375.396 326.074C382.825 337.348 389.354 344.765 392.169 347.069L410.423 342.92C410.423 342.92 370.025 280.397 368.2 248.705C366.376 217.006 368.142 169.781 403.467 125.368C446.576 71.163 510.567 62.799 544.397 65.0479C583.734 67.6625 624.559 82.7565 666.86 135.044L684.538 119.044C684.538 119.044 632.764 36.7463 530.278 38.2581C427.791 39.7693 365.703 111.207 346.652 190.17C339.968 217.88 342.368 244.472 348.729 267.673L351.395 276.527C353.233 282.131 355.278 287.496 357.446 292.596L361.697 301.935C363.722 306.109 365.806 310.063 367.89 313.759L375.396 326.074Z" fill="#F5AF0F"/>
<path fill-rule="evenodd" clip-rule="evenodd" d="M350.024 267.667L282.52 283.996L352.69 276.527C351.746 273.634 350.853 270.683 350.024 267.667Z" fill="#F7B20D"/>
<path fill-rule="evenodd" clip-rule="evenodd" d="M358.741 292.596L233.257 319.777L362.993 301.934C361.537 298.938 360.119 295.818 358.741 292.596Z" fill="#F7B20D"/>
<path fill-rule="evenodd" clip-rule="evenodd" d="M369.183 313.762L178.154 356.54L376.695 326.077C374.256 322.369 371.719 318.253 369.183 313.762Z" fill="#F7B20D"/>
<path fill-rule="evenodd" clip-rule="evenodd" d="M159.423 606.754C159.423 606.754 336.332 545.959 713.749 494.541C713.749 494.541 432.548 548.282 155.961 663.996C155.961 663.996 233.127 616.326 310.267 581.683C310.267 581.683 280.727 584.012 159.423 606.754Z" fill="#CB1313"/>
</g>
</g>
<defs>
<clipPath id="clip0_671_2529">
<rect width="878" height="664" fill="white"/>
</clipPath>
<clipPath id="clip1_671_2529">
<rect width="918" height="664" fill="white" transform="translate(-22)"/>
</clipPath>
</defs>
</svg>
