<svg width="24" height="24" viewBox="0 0 24 24" fill="none" xmlns="http://www.w3.org/2000/svg">
<path d="M10.9608 2.28027C11.4518 1.87979 12.176 1.90855 12.6337 2.36621C13.0914 2.82387 13.1201 3.54809 12.7196 4.03906L12.6337 4.13379L6.26748 10.5H20.2499L20.3778 10.5068C21.0081 10.5709 21.4999 11.1028 21.4999 11.75C21.4999 12.3972 21.0081 12.9291 20.3778 12.9932L20.2499 13H6.26748L12.6337 19.3662L12.7196 19.4609C13.1201 19.9519 13.0914 20.6761 12.6337 21.1338C12.176 21.5915 11.4518 21.6202 10.9608 21.2197L10.8661 21.1338L2.36612 12.6338C1.87796 12.1456 1.87796 11.3544 2.36612 10.8662L10.8661 2.36621L10.9608 2.28027Z" fill="black"/>
</svg>
