<svg width="24" height="24" viewBox="0 0 24 24" fill="none" xmlns="http://www.w3.org/2000/svg">
<path d="M12.5391 21.2197C12.0481 21.6202 11.3239 21.5915 10.8662 21.1338C10.4086 20.6761 10.3798 19.9519 10.7803 19.4609L10.8662 19.3662L17.2324 13H3.25L3.12207 12.9932C2.49183 12.9291 2 12.3972 2 11.75C2 11.1028 2.49183 10.5709 3.12207 10.5068L3.25 10.5H17.2324L10.8662 4.13379L10.7803 4.03906C10.3798 3.54809 10.4086 2.82387 10.8662 2.36621C11.3239 1.90855 12.0481 1.87979 12.5391 2.28027L12.6338 2.36621L21.1338 10.8662C21.6219 11.3544 21.6219 12.1456 21.1338 12.6338L12.6338 21.1338L12.5391 21.2197Z" fill="black"/>
</svg>
