<svg width="24" height="24" viewBox="0 0 24 24" fill="none" xmlns="http://www.w3.org/2000/svg">
<path d="M21.2197 10.9609C21.6202 11.4519 21.5914 12.1761 21.1337 12.6337C20.6761 13.0914 19.9519 13.1202 19.4609 12.7197L19.3662 12.6337L13 6.26753L13 20.25L12.9931 20.3779C12.929 21.0081 12.3971 21.5 11.75 21.5C11.1028 21.5 10.5709 21.0081 10.5068 20.3779L10.5 20.25L10.5 6.26753L4.13374 12.6337L4.03902 12.7197C3.54805 13.1202 2.82383 13.0914 2.36617 12.6337C1.9085 12.1761 1.87974 11.4519 2.28023 10.9609L2.36617 10.8662L10.8662 2.36616C11.3543 1.87801 12.1456 1.87801 12.6337 2.36616L21.1337 10.8662L21.2197 10.9609Z" fill="black"/>
</svg>
