<svg width="24" height="24" viewBox="0 0 24 24" fill="none" xmlns="http://www.w3.org/2000/svg">
<path d="M2.28023 12.5391C1.87974 12.0481 1.9085 11.3239 2.36616 10.8663C2.82383 10.4086 3.54805 10.3798 4.03902 10.7803L4.13374 10.8663L10.5 17.2325L10.5 3.25005L10.5068 3.12212C10.5709 2.49188 11.1028 2.00005 11.75 2.00005C12.3971 2.00005 12.929 2.49188 12.9931 3.12212L13 3.25005L13 17.2325L19.3662 10.8663L19.4609 10.7803C19.9519 10.3798 20.6761 10.4086 21.1337 10.8663C21.5914 11.3239 21.6202 12.0481 21.2197 12.5391L21.1337 12.6338L12.6337 21.1338C12.1456 21.622 11.3543 21.622 10.8662 21.1338L2.36616 12.6338L2.28023 12.5391Z" fill="black"/>
</svg>
