<svg width="24" height="24" viewBox="0 0 24 24" fill="none" xmlns="http://www.w3.org/2000/svg">
<path d="M11.3662 3.36621C11.8239 2.90855 12.5481 2.87979 13.0391 3.28027L13.1338 3.36621L21.1338 11.3662C21.6219 11.8544 21.6219 12.6456 21.1338 13.1338L13.1338 21.1338C12.6456 21.6219 11.8544 21.6219 11.3662 21.1338C10.8781 20.6456 10.8781 19.8544 11.3662 19.3662L18.4824 12.25L11.3662 5.13379L11.2803 5.03906C10.8798 4.54809 10.9085 3.82387 11.3662 3.36621Z" fill="black"/>
<path d="M2.36621 3.36621C2.82387 2.90855 3.54809 2.87979 4.03906 3.28027L4.13379 3.36621L12.1338 11.3662C12.6219 11.8544 12.6219 12.6456 12.1338 13.1338L4.13379 21.1338C3.64563 21.6219 2.85437 21.6219 2.36621 21.1338C1.87806 20.6456 1.87806 19.8544 2.36621 19.3662L9.48242 12.25L2.36621 5.13379L2.28027 5.03906C1.87979 4.54809 1.90855 3.82387 2.36621 3.36621Z" fill="black"/>
</svg>
