<svg width="24" height="24" viewBox="0 0 24 24" fill="none" xmlns="http://www.w3.org/2000/svg">
<path d="M12.1337 3.36621C11.676 2.90855 10.9518 2.87979 10.4608 3.28027L10.3661 3.36621L2.36612 11.3662C1.87796 11.8544 1.87796 12.6456 2.36612 13.1338L10.3661 21.1338C10.8543 21.6219 11.6455 21.6219 12.1337 21.1338C12.6219 20.6456 12.6219 19.8544 12.1337 19.3662L5.01749 12.25L12.1337 5.13379L12.2196 5.03906C12.6201 4.54809 12.5914 3.82387 12.1337 3.36621Z" fill="black"/>
<path d="M21.1337 3.36621C20.676 2.90855 19.9518 2.87979 19.4608 3.28027L19.3661 3.36621L11.3661 11.3662C10.878 11.8544 10.878 12.6456 11.3661 13.1338L19.3661 21.1338C19.8543 21.6219 20.6455 21.6219 21.1337 21.1338C21.6219 20.6456 21.6219 19.8544 21.1337 19.3662L14.0175 12.25L21.1337 5.13379L21.2196 5.03906C21.6201 4.54809 21.5914 3.82387 21.1337 3.36621Z" fill="black"/>
</svg>
