<svg width="24" height="24" viewBox="0 0 24 24" fill="none" xmlns="http://www.w3.org/2000/svg">
<path d="M15.9438 10.6195C16.3653 10.6195 16.7226 10.472 17.0157 10.1769C17.3089 9.88202 17.4554 9.52394 17.4554 9.10266C17.4554 8.68138 17.308 8.32417 17.0131 8.03103C16.7182 7.73769 16.3601 7.59103 15.9386 7.59103C15.5173 7.59103 15.1601 7.73856 14.8669 8.03363C14.5738 8.32851 14.4272 8.68659 14.4272 9.10787C14.4272 9.52915 14.5747 9.88636 14.8696 10.1795C15.1644 10.4728 15.5225 10.6195 15.9438 10.6195ZM8.06142 10.6195C8.4827 10.6195 8.83991 10.472 9.13305 10.1769C9.42619 9.88202 9.57276 9.52394 9.57276 9.10266C9.57276 8.68138 9.42532 8.32417 9.13045 8.03103C8.83557 7.73769 8.47749 7.59103 8.05621 7.59103C7.63474 7.59103 7.27743 7.73856 6.98429 8.03363C6.69115 8.32851 6.54458 8.68659 6.54458 9.10787C6.54458 9.52915 6.69202 9.88636 6.98689 10.1795C7.28177 10.4728 7.63995 10.6195 8.06142 10.6195ZM12 18.0121C13.2083 18.0121 14.3127 17.674 15.3133 16.9978C16.3139 16.3216 17.0517 15.4276 17.5266 14.3158H15.9947C15.5702 15.0298 15.0057 15.5943 14.3013 16.0092C13.5969 16.4241 12.8298 16.6316 12 16.6316C11.1702 16.6316 10.4031 16.4241 9.69868 16.0092C8.9943 15.5943 8.42982 15.0298 8.00526 14.3158H6.47337C6.9483 15.4276 7.68607 16.3216 8.68668 16.9978C9.6873 17.674 10.7917 18.0121 12 18.0121ZM12.002 23C10.4806 23 9.05046 22.7113 7.71174 22.1339C6.37302 21.5565 5.20856 20.7729 4.21837 19.7831C3.22818 18.7933 2.44418 17.6293 1.86639 16.2912C1.2888 14.953 1 13.5233 1 12.002C1 10.4806 1.2887 9.05046 1.86611 7.71174C2.44351 6.37302 3.22711 5.20856 4.21692 4.21837C5.20673 3.22818 6.3707 2.44418 7.70884 1.86639C9.04698 1.2888 10.4767 1 11.998 1C13.5194 1 14.9495 1.2887 16.2883 1.8661C17.627 2.44351 18.7914 3.22711 19.7816 4.21692C20.7718 5.20673 21.5558 6.3707 22.1336 7.70884C22.7112 9.04698 23 10.4767 23 11.998C23 13.5194 22.7113 14.9495 22.1339 16.2883C21.5565 17.627 20.7729 18.7914 19.7831 19.7816C18.7933 20.7718 17.6293 21.5558 16.2912 22.1336C14.953 22.7112 13.5233 23 12.002 23ZM12 21.2632C14.586 21.2632 16.7763 20.3658 18.5711 18.5711C20.3658 16.7763 21.2632 14.586 21.2632 12C21.2632 9.41403 20.3658 7.22368 18.5711 5.42895C16.7763 3.63421 14.586 2.73684 12 2.73684C9.41403 2.73684 7.22368 3.63421 5.42895 5.42895C3.63421 7.22368 2.73684 9.41403 2.73684 12C2.73684 14.586 3.63421 16.7763 5.42895 18.5711C7.22368 20.3658 9.41403 21.2632 12 21.2632Z" fill="black"/>
</svg>
