<svg width="24" height="24" viewBox="0 0 24 24" fill="none" xmlns="http://www.w3.org/2000/svg">
<path d="M15 10.75C15.6904 10.75 16.25 11.3096 16.25 12V20.75H19C19.1989 20.75 19.3896 20.6709 19.5303 20.5303C19.6709 20.3896 19.75 20.1989 19.75 20V9.61035L12 3.58301L4.25 9.61035V20C4.25 20.1989 4.32907 20.3896 4.46973 20.5303C4.61038 20.6709 4.80109 20.75 5 20.75H7.75V12C7.75 11.3096 8.30964 10.75 9 10.75H15ZM10.25 20.75H13.75V13.25H10.25V20.75ZM22.25 20C22.25 20.862 21.9073 21.6884 21.2979 22.2979C20.6884 22.9073 19.862 23.25 19 23.25H5C4.13805 23.25 3.31164 22.9073 2.70215 22.2979C2.09266 21.6884 1.75 20.862 1.75 20V9C1.75 8.61438 1.9281 8.2505 2.23242 8.01367L11.2324 1.01367L11.3193 0.951172C11.7623 0.663355 12.3445 0.6846 12.7676 1.01367L21.7676 8.01367C22.0719 8.2505 22.25 8.61438 22.25 9V20Z" fill="black"/>
</svg>
