<svg width="24" height="24" viewBox="0 0 24 24" fill="none" xmlns="http://www.w3.org/2000/svg">
<path d="M2 19.25V5.25C2 4.38805 2.34266 3.56164 2.95215 2.95215C3.56164 2.34266 4.38805 2 5.25 2H9.25C9.94036 2 10.5 2.55964 10.5 3.25C10.5 3.94036 9.94036 4.5 9.25 4.5H5.25C5.05109 4.5 4.86038 4.57907 4.71973 4.71973C4.57907 4.86038 4.5 5.05109 4.5 5.25V19.25L4.51465 19.3975C4.54352 19.5414 4.61435 19.6749 4.71973 19.7803C4.86038 19.9209 5.05109 20 5.25 20H9.25C9.94036 20 10.5 20.5596 10.5 21.25C10.5 21.9404 9.94036 22.5 9.25 22.5H5.25C4.38805 22.5 3.56164 22.1573 2.95215 21.5479C2.34266 20.9384 2 20.112 2 19.25ZM15.3662 6.36621C15.8239 5.90855 16.5481 5.87979 17.0391 6.28027L17.1338 6.36621L22.1338 11.3662C22.6219 11.8544 22.6219 12.6456 22.1338 13.1338L17.1338 18.1338C16.6456 18.6219 15.8544 18.6219 15.3662 18.1338C14.8781 17.6456 14.8781 16.8544 15.3662 16.3662L18.2324 13.5H9.25C8.55964 13.5 8 12.9404 8 12.25C8 11.5596 8.55964 11 9.25 11H18.2324L15.3662 8.13379L15.2803 8.03906C14.8798 7.54809 14.9085 6.82387 15.3662 6.36621Z" fill="black"/>
</svg>
