<svg width="24" height="24" viewBox="0 0 24 24" fill="none" xmlns="http://www.w3.org/2000/svg">
<path d="M21 8.65039L12.9668 14.2744C12.5365 14.5755 11.9635 14.5755 11.5332 14.2744L3.5 8.65039V18.25C3.5 18.6596 3.84036 19 4.25 19H20.25C20.6596 19 21 18.6596 21 18.25V8.65039ZM4.25 5.5C4.03587 5.5 3.84165 5.59392 3.7041 5.74121L12.25 11.7236L20.7949 5.74121C20.6574 5.59421 20.4639 5.5 20.25 5.5H4.25ZM23.5 18.25C23.5 20.0404 22.0404 21.5 20.25 21.5H4.25C2.45964 21.5 1 20.0404 1 18.25V6.25C1 4.45964 2.45964 3 4.25 3H20.25C22.0404 3 23.5 4.45964 23.5 6.25V18.25Z" fill="black"/>
</svg>
