<svg width="24" height="24" viewBox="0 0 24 24" fill="none" xmlns="http://www.w3.org/2000/svg">
<path d="M7.3 23C5.53056 23 4.03819 22.3924 2.82292 21.1771C1.60764 19.9618 1 18.4694 1 16.7C1 15.9611 1.12639 15.2417 1.37917 14.5417C1.63194 13.8417 1.99167 13.2097 2.45833 12.6458L6.6 7.65833L3.77083 2H19.2292L16.4 7.65833L20.5417 12.6458C21.0083 13.2097 21.3681 13.8417 21.6208 14.5417C21.8736 15.2417 22 15.9611 22 16.7C22 18.4694 21.3875 19.9618 20.1625 21.1771C18.9375 22.3924 17.45 23 15.7 23H7.3ZM11.5 17.1667C10.8583 17.1667 10.309 16.9382 9.85208 16.4812C9.39514 16.0243 9.16667 15.475 9.16667 14.8333C9.16667 14.1917 9.39514 13.6424 9.85208 13.1854C10.309 12.7285 10.8583 12.5 11.5 12.5C12.1417 12.5 12.691 12.7285 13.1479 13.1854C13.6049 13.6424 13.8333 14.1917 13.8333 14.8333C13.8333 15.475 13.6049 16.0243 13.1479 16.4812C12.691 16.9382 12.1417 17.1667 11.5 17.1667ZM8.72917 6.66667H14.2708L15.4375 4.33333H7.5625L8.72917 6.66667ZM7.3 20.6667H15.7C16.8083 20.6667 17.7465 20.2826 18.5146 19.5146C19.2826 18.7465 19.6667 17.8083 19.6667 16.7C19.6667 16.2333 19.584 15.7812 19.4187 15.3437C19.2535 14.9062 19.025 14.5125 18.7333 14.1625L14.4458 9H8.58333L4.26667 14.1333C3.975 14.4833 3.74653 14.8819 3.58125 15.3292C3.41597 15.7764 3.33333 16.2333 3.33333 16.7C3.33333 17.8083 3.71736 18.7465 4.48542 19.5146C5.25347 20.2826 6.19167 20.6667 7.3 20.6667Z" fill="black"/>
</svg>
