<svg width="24" height="24" viewBox="0 0 24 24" fill="none" xmlns="http://www.w3.org/2000/svg">
<path d="M10.2405 22.1347L9.827 12.923L6.17125 10.8L5.70575 12.5135L7.56725 15.7402L6.2655 16.4902L4.06925 12.7115L5.2115 8.6135L11.0097 5.29425L8.375 2.58275L9.41925 1.5385L13.4422 5.60375L9.7845 7.7365L11.6577 9.14225L19.7712 2.34625L20.6635 3.3905L12.2595 11.8942L11.7595 22.1347H10.2405ZM5 6.84625C4.49483 6.84625 4.06083 6.66483 3.698 6.302C3.33516 5.93917 3.15375 5.50517 3.15375 5C3.15375 4.49483 3.33516 4.06083 3.698 3.698C4.06083 3.33516 4.49483 3.15375 5 3.15375C5.50516 3.15375 5.93916 3.33516 6.302 3.698C6.66483 4.06083 6.84625 4.49483 6.84625 5C6.84625 5.50517 6.66483 5.93917 6.302 6.302C5.93916 6.66483 5.50516 6.84625 5 6.84625Z" fill="black"/>
</svg>
