<svg width="24" height="24" viewBox="0 0 24 24" fill="none" xmlns="http://www.w3.org/2000/svg">
<path d="M2.38475 19.5577V17.327C2.38475 17.0757 2.46933 16.8654 2.6385 16.6962C2.80767 16.5269 3.01792 16.4422 3.26925 16.4422H4.19225V19.5577H2.38475ZM5.19225 19.5577V16.4422H9.2885L10.2155 14.3385L11.3538 16.8192L10.3693 19.0077C10.2794 19.1974 10.1593 19.3365 10.0088 19.425C9.85808 19.5135 9.67825 19.5577 9.46925 19.5577H5.19225ZM19.8078 19.5577V16.4422H20.7307C20.9821 16.4422 21.1923 16.5269 21.3615 16.6962C21.5307 16.8654 21.6152 17.0757 21.6152 17.327V19.5577H19.8078ZM18.8078 19.5577H14.5307C14.3282 19.5577 14.1501 19.5135 13.9962 19.425C13.8424 19.3365 13.7206 19.1974 13.6307 19.0077L7.04225 4.44225H9.39225L12 10.3155L14.6078 4.44225H16.9578L13.1385 12.8885L14.7115 16.4422H18.8078V19.5577Z" fill="black"/>
</svg>
