<svg width="24" height="24" viewBox="0 0 24 24" fill="none" xmlns="http://www.w3.org/2000/svg">
<path d="M9.39625 18.9115L5.0885 14.6038C5.01283 15.2499 4.98433 15.9643 5.003 16.747C5.0215 17.5298 5.08717 18.1975 5.2 18.75C5.62183 18.8795 6.26992 18.9593 7.14425 18.9895C8.01858 19.0195 8.76925 18.9935 9.39625 18.9115ZM11.2 18.6078C12.1897 18.4168 13.1114 18.11 13.9652 17.6875C14.8192 17.265 15.5475 16.7525 16.15 16.15C16.7295 15.5705 17.2305 14.8596 17.653 14.0173C18.0753 13.1749 18.3936 12.2525 18.6077 11.25L12.75 5.39225C11.8 5.59358 10.9048 5.91125 10.0645 6.34525C9.224 6.77925 8.51208 7.28792 7.92875 7.87125C7.34542 8.45458 6.83683 9.169 6.403 10.0145C5.969 10.86 5.63208 11.7885 5.39225 12.8L11.2 18.6078ZM9.9 15.1538L8.84625 14.1L14.1 8.84625L15.1538 9.9L9.9 15.1538ZM18.9115 9.44625C18.9975 8.75775 19.0312 8.01858 19.0125 7.22875C18.9938 6.43908 18.923 5.7795 18.8 5.25C18.3782 5.11033 17.7301 5.02542 16.8557 4.99525C15.9814 4.96508 15.2308 4.99617 14.6038 5.0885L18.9115 9.44625ZM7.8365 20.5C6.957 20.5 6.14483 20.4388 5.4 20.3163C4.65517 20.1939 4.20708 20.0571 4.05575 19.9057C3.91092 19.7442 3.78208 19.2988 3.66925 18.5693C3.55642 17.8398 3.5 17.0493 3.5 16.198C3.5 14.2725 3.78883 12.4911 4.3665 10.8538C4.944 9.21658 5.76033 7.8705 6.8155 6.8155C7.8705 5.76033 9.22592 4.944 10.8817 4.3665C12.5376 3.78883 14.3366 3.5 16.2788 3.5C17.1493 3.5 17.9303 3.558 18.622 3.674C19.3137 3.79 19.7383 3.92367 19.896 4.075C20.0667 4.243 20.21 4.68692 20.326 5.40675C20.442 6.12658 20.5 6.92883 20.5 7.8135C20.5 9.74417 20.2128 11.5297 19.6385 13.1703C19.0642 14.8106 18.2526 16.1551 17.2038 17.2038C16.1654 18.2423 14.8215 19.0512 13.172 19.6307C11.5227 20.2102 9.74417 20.5 7.8365 20.5Z" fill="black"/>
</svg>
