<svg width="24" height="24" viewBox="0 0 24 24" fill="none" xmlns="http://www.w3.org/2000/svg">
<path d="M7.65 21C6.75767 21 5.95867 20.933 5.253 20.799C4.54717 20.665 4.06158 20.4602 3.79625 20.1845C3.54108 19.9192 3.34458 19.4301 3.20675 18.7173C3.06892 18.0044 3 17.1948 3 16.2885C3 14.4232 3.32467 12.6353 3.974 10.925C4.62333 9.21483 5.51408 7.78858 6.64625 6.64625C7.77825 5.51408 9.2045 4.62333 10.925 3.974C12.6455 3.32467 14.4538 3 16.35 3C17.2423 3 18.0413 3.067 18.747 3.201C19.4528 3.335 19.9384 3.53983 20.2038 3.8155C20.4589 4.08083 20.6554 4.56992 20.7932 5.28275C20.9311 5.99558 21 6.80517 21 7.7115C21 9.57683 20.6753 11.3647 20.026 13.075C19.3767 14.7852 18.4859 16.2114 17.3538 17.3538C16.2218 18.4859 14.7955 19.3767 13.075 20.026C11.3545 20.6753 9.54617 21 7.65 21ZM4.55 16.6578C5.09367 15.2591 5.76675 13.9376 6.56925 12.6933C7.37175 11.4491 8.27692 10.3129 9.28475 9.28475C10.2859 8.28342 11.4103 7.38142 12.6578 6.57875C13.9053 5.77625 15.2283 5.1 16.627 4.55C14.9372 4.51017 13.2814 4.781 11.6598 5.3625C10.0379 5.94383 8.72825 6.73325 7.73075 7.73075C6.70892 8.73208 5.91083 10.0407 5.3365 11.6567C4.76217 13.2727 4.5 14.9398 4.55 16.6578ZM7.39225 19.45C9.06275 19.4898 10.7105 19.219 12.3355 18.6375C13.9605 18.0562 15.2718 17.2668 16.2693 16.2693C17.2911 15.2679 18.0892 13.9561 18.6635 12.3338C19.2378 10.7113 19.5 9.041 19.45 7.323C18.9 8.72817 18.2279 10.0545 17.4337 11.302C16.6394 12.5493 15.7332 13.6871 14.7152 14.7152C13.7076 15.7231 12.5817 16.6282 11.3375 17.4307C10.0932 18.2332 8.77808 18.9063 7.39225 19.45ZM5.4115 18.6078C6.8795 18.1578 8.34358 17.4911 9.80375 16.6078C11.2641 15.7244 12.5397 14.7321 13.6307 13.6308C14.7501 12.5218 15.7514 11.2355 16.6348 9.772C17.5181 8.30867 18.1693 6.84875 18.5885 5.39225C17.1205 5.84225 15.6564 6.50892 14.1962 7.39225C12.7359 8.27558 11.4602 9.26792 10.3692 10.3693C9.24992 11.4783 8.24858 12.7645 7.36525 14.228C6.48192 15.6913 5.83067 17.1513 5.4115 18.6078Z" fill="black"/>
</svg>
